<?xml version="1.0" encoding="UTF-8" standalone="no"?>
<!DOCTYPE svg PUBLIC "-//W3C//DTD SVG 20010904//EN"
              "http://www.w3.org/TR/2001/REC-SVG-20010904/DTD/svg10.dtd">

<svg xmlns="http://www.w3.org/2000/svg"
     width="114.893mm" height="51.6468mm"
     viewBox="0 0 1357 610">
  <path id="Markering"
        fill="black" stroke="black" stroke-width="1"
        d="M 396.00,236.00
           C 388.69,238.09 367.88,251.18 360.00,255.67
             360.00,255.67 328.00,273.33 328.00,273.33
             328.00,273.33 296.00,291.47 296.00,291.47
             296.00,291.47 265.00,308.15 265.00,308.15
             262.52,308.96 260.55,308.97 258.00,309.00
             258.00,309.00 242.00,309.00 242.00,309.00
             239.90,309.00 236.29,308.76 234.56,310.02
             232.94,311.20 231.69,315.09 231.09,317.00
             231.09,317.00 226.74,338.00 226.74,338.00
             226.74,338.00 221.16,366.00 221.16,366.00
             221.16,366.00 216.45,385.00 216.45,385.00
             216.45,385.00 210.33,417.00 210.33,417.00
             210.33,417.00 206.42,432.00 206.42,432.00
             206.42,432.00 199.92,465.00 199.92,465.00
             199.44,467.66 197.36,474.12 199.01,476.26
             200.63,478.37 205.57,478.00 208.00,478.00
             208.00,478.00 251.00,478.00 251.00,478.00
             253.62,478.00 258.18,478.38 260.05,476.26
             261.94,474.11 262.99,464.22 263.66,461.00
             263.66,461.00 272.00,423.00 272.00,423.00
             272.00,423.00 289.24,464.00 289.24,464.00
             295.31,476.42 292.92,477.98 304.00,478.00
             304.00,478.00 345.00,478.00 345.00,478.00
             347.32,478.00 351.56,478.25 353.44,476.83
             355.30,475.41 356.30,469.38 356.87,467.00
             356.87,467.00 358.47,458.00 358.47,458.00
             358.47,458.00 362.87,441.00 362.87,441.00
             362.87,441.00 369.45,407.00 369.45,407.00
             369.45,407.00 374.34,387.00 374.34,387.00
             374.34,387.00 380.46,355.00 380.46,355.00
             380.46,355.00 389.00,316.00 389.00,316.00
             389.00,316.00 434.00,316.00 434.00,316.00
             431.66,324.68 429.72,325.84 426.32,333.00
             426.32,333.00 413.26,361.00 413.26,361.00
             413.26,361.00 396.69,397.00 396.69,397.00
             396.69,397.00 376.69,439.00 376.69,439.00
             371.85,449.58 362.43,466.36 360.00,477.00
             365.89,478.67 373.77,478.00 380.00,478.00
             380.00,478.00 414.00,478.00 414.00,478.00
             416.91,478.00 421.02,478.36 423.30,476.26
             429.87,470.24 426.67,455.25 440.00,455.00
             440.00,455.00 465.00,455.00 465.00,455.00
             465.00,455.00 465.00,470.00 465.00,470.00
             465.06,479.20 466.14,478.00 481.00,478.00
             481.00,478.00 530.00,478.00 530.00,478.00
             532.26,478.00 536.63,478.25 538.43,476.83
             540.98,474.81 539.02,465.49 539.00,462.00
             539.00,462.00 539.00,445.00 539.00,445.00
             539.00,445.00 538.00,428.00 538.00,428.00
             538.00,428.00 537.00,411.00 537.00,411.00
             537.00,411.00 537.00,398.00 537.00,398.00
             537.00,398.00 536.04,386.00 536.04,386.00
             536.04,386.00 536.04,371.00 536.04,371.00
             541.01,372.41 544.95,372.31 548.49,367.89
             551.08,364.67 552.75,357.13 554.02,353.00
             557.00,343.32 561.58,334.09 563.00,324.00
             563.00,324.00 565.00,352.00 565.00,352.00
             565.00,352.00 565.00,372.00 565.00,372.00
             564.98,386.97 555.14,425.08 551.66,442.00
             551.66,442.00 546.87,467.00 546.87,467.00
             546.32,469.33 544.58,474.34 546.06,476.40
             547.48,478.37 551.81,478.00 554.00,478.00
             554.00,478.00 567.00,478.00 567.00,478.00
             567.00,478.00 568.00,499.00 568.00,499.00
             568.01,502.32 567.77,506.87 568.61,510.00
             569.65,513.86 571.95,517.70 576.00,518.88
             580.28,520.12 584.24,517.92 586.00,513.96
             586.00,513.96 589.80,497.00 589.80,497.00
             591.45,489.18 593.27,486.87 594.00,478.00
             594.00,478.00 611.00,478.00 611.00,478.00
             613.36,478.00 617.53,478.25 619.47,476.83
             621.99,474.97 622.65,468.00 623.14,465.00
             623.14,465.00 630.00,434.00 630.00,434.00
             647.39,434.00 666.07,434.73 683.00,430.25
             691.88,427.89 699.80,422.95 708.00,419.00
             708.00,419.00 715.92,469.00 715.92,469.00
             716.70,473.74 719.22,488.48 721.73,492.10
             724.94,496.15 732.72,495.81 736.44,492.10
             738.67,490.28 743.71,477.57 745.19,474.00
             745.19,474.00 751.00,458.00 751.00,458.00
             751.00,458.00 759.00,465.61 759.00,465.61
             768.95,473.42 786.28,479.85 799.00,480.00
             814.96,480.18 832.69,480.97 848.00,476.11
             852.36,474.73 853.21,473.85 857.00,472.17
             880.29,461.82 893.32,446.71 904.10,424.00
             908.14,415.50 911.21,406.44 912.00,397.00
             912.87,400.04 913.73,405.82 913.91,409.00
             914.19,413.96 911.77,424.75 910.66,430.00
             910.66,430.00 905.21,457.00 905.21,457.00
             904.36,460.81 899.43,474.30 902.58,476.83
             904.23,478.15 907.94,477.99 910.00,478.00
             910.00,478.00 916.00,478.00 916.00,478.00
             919.05,478.06 921.80,477.95 923.26,481.15
             924.80,484.51 924.51,498.51 927.59,502.92
             931.82,509.02 940.02,509.14 944.15,502.92
             945.93,500.20 945.96,497.10 946.00,494.00
             946.09,485.88 945.91,486.26 947.00,478.00
             947.00,478.00 1026.00,478.00 1026.00,478.00
             1028.75,478.00 1033.11,478.37 1035.18,476.26
             1037.50,473.90 1038.13,465.50 1038.88,462.00
             1038.88,462.00 1043.36,440.00 1043.36,440.00
             1043.36,440.00 1045.48,433.00 1045.48,433.00
             1045.48,433.00 1047.00,424.00 1047.00,424.00
             1047.00,424.00 1026.00,423.00 1026.00,423.00
             1026.00,423.00 989.00,423.00 989.00,423.00
             989.00,423.00 996.47,384.00 996.47,384.00
             996.47,384.00 1001.11,366.00 1001.11,366.00
             1001.11,366.00 1004.46,347.00 1004.46,347.00
             1004.46,347.00 1006.74,337.00 1006.74,337.00
             1006.74,337.00 1011.27,317.00 1011.27,317.00
             1011.27,317.00 1011.27,309.99 1011.27,309.99
             1011.27,309.99 1004.00,309.00 1004.00,309.00
             1004.00,309.00 957.00,309.00 957.00,309.00
             957.00,309.00 957.00,248.00 957.00,248.00
             957.00,248.00 958.00,231.00 958.00,231.00
             958.00,231.00 958.00,186.00 958.00,186.00
             958.00,186.00 958.97,169.00 958.97,169.00
             958.97,169.00 958.97,130.00 958.97,130.00
             959.00,126.97 959.55,120.43 958.97,118.00
             957.26,111.53 950.00,107.58 944.09,111.60
             940.52,114.02 935.95,121.23 933.58,125.00
             933.58,125.00 921.28,143.00 921.28,143.00
             921.28,143.00 889.35,189.00 889.35,189.00
             889.35,189.00 868.00,220.00 868.00,220.00
             864.36,212.58 862.24,211.81 857.66,205.83
             857.66,205.83 834.28,176.00 834.28,176.00
             834.28,176.00 816.55,153.00 816.55,153.00
             816.55,153.00 792.49,122.00 792.49,122.00
             792.49,122.00 783.53,111.00 783.53,111.00
             783.53,111.00 777.09,103.00 777.09,103.00
             770.86,95.31 761.72,77.66 749.32,86.09
             747.05,87.63 743.65,92.62 741.74,95.00
             741.74,95.00 725.50,116.00 725.50,116.00
             725.50,116.00 675.11,181.00 675.11,181.00
             675.11,181.00 657.90,203.00 657.90,203.00
             656.30,205.10 653.25,210.77 650.13,209.80
             648.29,209.23 645.80,205.53 644.54,204.00
             644.54,204.00 631.82,189.00 631.82,189.00
             631.82,189.00 614.87,169.00 614.87,169.00
             612.37,166.09 607.19,160.38 605.85,157.00
             604.30,153.07 606.49,141.76 606.93,137.00
             606.93,137.00 612.80,87.00 612.80,87.00
             612.80,87.00 614.29,75.00 614.29,75.00
             614.29,75.00 618.28,47.00 618.28,47.00
             619.01,40.89 618.78,34.67 611.98,32.02
             605.72,29.57 601.23,34.72 597.59,39.00
             597.59,39.00 570.39,71.00 570.39,71.00
             570.39,71.00 552.92,91.04 552.92,91.04
             552.92,91.04 529.15,119.00 529.15,119.00
             525.41,123.27 518.08,133.53 513.00,135.40
             511.06,136.12 508.09,136.00 506.00,136.00
             506.00,136.00 470.00,136.00 470.00,136.00
             467.47,136.00 464.41,135.89 462.00,136.65
             455.54,138.67 445.18,151.62 440.04,157.00
             436.73,160.47 432.06,167.81 427.00,167.65
             423.01,167.52 404.00,160.40 399.00,158.74
             399.00,158.74 339.00,139.19 339.00,139.19
             331.67,136.82 313.89,127.97 307.43,134.43
             298.06,143.80 316.99,157.86 323.00,163.53
             323.00,163.53 371.00,211.00 371.00,211.00
             378.14,218.06 390.50,228.33 396.00,236.00 Z
           M 597.00,69.00
           C 597.00,69.00 595.16,84.00 595.16,84.00
             595.16,84.00 585.85,159.00 585.85,159.00
             585.85,159.00 583.00,182.00 583.00,182.00
             583.00,182.00 564.00,171.00 564.00,171.00
             565.38,165.13 571.05,153.21 573.72,147.00
             575.35,143.21 577.88,138.19 576.26,134.04
             573.50,126.98 565.74,127.51 561.70,133.05
             561.70,133.05 548.58,163.00 548.58,163.00
             547.11,166.49 544.60,171.14 545.47,175.00
             546.68,180.37 553.63,184.10 558.00,186.81
             558.00,186.81 584.00,203.31 584.00,203.31
             586.64,205.01 593.60,208.78 594.89,211.32
             596.67,214.87 591.10,227.04 589.69,231.00
             589.69,231.00 571.00,284.00 571.00,284.00
             571.00,284.00 563.14,272.00 563.14,272.00
             563.14,272.00 552.00,252.00 552.00,252.00
             558.66,249.78 573.29,245.82 575.05,238.00
             575.78,234.78 573.32,231.52 570.90,229.70
             568.37,227.80 551.35,219.95 548.00,219.00
             549.74,214.95 555.51,204.42 555.73,201.00
             556.10,195.51 550.24,189.97 544.04,194.03
             539.19,197.21 535.96,205.80 533.00,211.00
             529.32,210.35 526.48,209.50 523.09,211.74
             518.08,215.05 514.12,225.58 508.91,226.60
             507.40,226.89 499.04,225.72 497.00,225.42
             497.00,225.42 473.00,222.09 473.00,222.09
             467.80,221.76 461.32,223.18 459.66,229.00
             458.33,233.63 463.15,237.16 467.00,238.28
             467.00,238.28 499.00,243.00 499.00,243.00
             499.00,243.00 486.68,258.83 486.68,258.83
             486.68,258.83 472.00,261.73 472.00,261.73
             472.00,261.73 441.00,266.00 441.00,266.00
             441.00,266.00 444.10,247.00 444.10,247.00
             445.11,242.74 446.62,239.14 444.10,235.11
             439.58,228.35 430.75,231.04 424.00,231.00
             422.31,230.99 419.87,231.06 418.29,230.48
             415.55,229.47 402.69,216.69 400.00,214.00
             400.00,214.00 365.49,179.88 365.49,179.88
             359.16,173.76 352.16,168.21 347.00,161.00
             347.00,161.00 409.00,181.19 409.00,181.19
             414.70,182.98 428.72,188.67 434.00,187.59
             439.30,186.52 443.07,181.87 446.42,178.00
             446.42,178.00 459.84,163.00 459.84,163.00
             462.24,160.31 464.74,156.83 468.00,155.17
             470.30,154.01 472.51,154.04 475.00,154.00
             475.00,154.00 514.00,154.00 514.00,154.00
             516.58,154.00 519.58,154.15 521.99,153.15
             526.67,151.20 538.08,136.59 541.92,132.00
             541.92,132.00 575.25,93.00 575.25,93.00
             580.19,87.09 591.50,73.03 597.00,69.00 Z
           M 940.00,147.00
           C 940.00,147.00 941.00,160.00 941.00,160.00
             941.00,160.00 940.00,188.00 940.00,188.00
             940.00,188.00 940.00,243.00 940.00,243.00
             940.00,243.00 939.00,258.00 939.00,258.00
             939.00,258.00 939.00,296.00 939.00,296.00
             939.00,296.00 938.00,313.00 938.00,313.00
             938.00,313.00 938.00,336.00 938.00,336.00
             938.00,336.00 936.09,363.00 936.09,363.00
             936.09,363.00 933.91,400.00 933.91,400.00
             933.91,400.00 933.00,409.00 933.00,409.00
             931.22,404.64 931.23,399.63 930.58,395.00
             930.58,395.00 926.85,367.00 926.85,367.00
             926.85,367.00 916.25,296.00 916.25,296.00
             916.25,296.00 912.08,270.00 912.08,270.00
             911.41,265.91 911.19,260.32 908.57,257.11
             904.55,252.18 898.93,251.44 894.52,256.22
             894.52,256.22 878.00,282.00 878.00,282.00
             876.28,284.63 873.63,290.39 869.96,289.84
             868.03,289.54 864.68,286.89 863.00,285.72
             863.00,285.72 849.00,276.33 849.00,276.33
             849.00,276.33 799.00,242.42 799.00,242.42
             796.17,240.42 790.23,236.06 787.00,235.46
             781.53,234.45 776.33,239.69 777.47,244.99
             778.62,250.27 789.51,256.34 794.00,259.33
             794.00,259.33 820.00,276.72 820.00,276.72
             820.00,276.72 844.00,293.00 844.00,293.00
             844.00,293.00 826.00,294.00 826.00,294.00
             826.00,294.00 809.00,295.00 809.00,295.00
             809.00,295.00 782.00,295.00 782.00,295.00
             782.00,295.00 740.00,295.00 740.00,295.00
             740.00,295.00 716.00,296.00 716.00,296.00
             716.00,296.00 650.00,296.00 650.00,296.00
             654.62,293.00 666.25,288.99 672.00,286.58
             672.00,286.58 724.00,265.86 724.00,265.86
             730.41,263.21 746.20,259.11 748.16,252.00
             749.31,247.79 745.26,244.10 742.00,242.22
             742.00,242.22 713.00,232.00 713.00,232.00
             720.44,221.47 730.26,213.47 738.83,204.00
             738.83,204.00 754.00,188.00 754.00,188.00
             758.28,183.72 770.89,173.38 769.44,167.00
             768.75,163.99 766.03,161.13 762.99,160.47
             758.98,159.61 755.94,162.28 753.30,164.87
             753.30,164.87 736.00,183.00 736.00,183.00
             736.00,183.00 699.00,221.00 699.00,221.00
             694.98,225.03 687.58,231.47 689.78,238.00
             692.27,245.39 707.07,248.43 714.00,250.00
             710.95,254.54 698.41,257.97 693.00,260.06
             693.00,260.06 637.00,282.00 637.00,282.00
             638.13,277.73 642.65,258.97 642.00,255.72
             641.15,251.51 636.46,246.49 631.85,248.50
             626.50,250.84 625.43,256.93 624.40,262.00
             624.40,262.00 617.20,294.00 617.20,294.00
             617.20,294.00 610.42,323.00 610.42,323.00
             610.42,323.00 595.58,390.00 595.58,390.00
             595.58,390.00 586.00,434.00 586.00,434.00
             583.24,427.04 584.01,398.17 584.00,389.00
             584.00,389.00 583.00,372.00 583.00,372.00
             583.00,372.00 583.00,342.00 583.00,342.00
             583.00,342.00 582.05,327.83 582.05,327.83
             582.05,327.83 582.05,311.00 582.05,311.00
             582.02,299.86 585.21,295.23 588.67,285.00
             588.67,285.00 607.05,235.00 607.05,235.00
             607.05,235.00 615.44,211.00 615.44,211.00
             617.04,200.74 604.14,197.85 600.60,193.47
             598.14,190.44 599.82,184.82 600.00,181.00
             605.28,184.86 608.89,190.07 613.13,195.00
             613.13,195.00 635.92,222.00 635.92,222.00
             639.20,225.93 645.89,235.61 651.00,236.09
             655.64,236.53 659.31,232.22 661.88,228.99
             661.88,228.99 679.37,206.00 679.37,206.00
             679.37,206.00 726.65,144.00 726.65,144.00
             726.65,144.00 755.00,107.00 755.00,107.00
             759.67,109.40 761.78,112.94 765.00,117.00
             765.00,117.00 781.21,138.00 781.21,138.00
             781.21,138.00 838.63,212.00 838.63,212.00
             838.63,212.00 858.80,238.00 858.80,238.00
             861.47,241.29 865.33,246.32 870.00,246.32
             873.60,246.32 876.20,243.61 878.24,240.98
             878.24,240.98 890.19,223.00 890.19,223.00
             890.19,223.00 925.69,169.00 925.69,169.00
             925.69,169.00 940.00,147.00 940.00,147.00 Z
           M 544.00,235.00
           C 541.06,239.37 524.59,243.72 519.00,245.00
             521.48,241.30 528.31,230.79 533.00,230.95
             533.00,230.95 544.00,235.00 544.00,235.00 Z
           M 426.00,248.00
           C 425.99,252.16 425.03,266.70 421.69,268.98
             418.03,271.47 396.48,269.70 399.45,281.96
             400.53,286.44 404.81,288.12 409.00,288.08
             409.00,288.08 437.00,284.13 437.00,284.13
             437.00,284.13 472.00,278.92 472.00,278.92
             476.07,278.25 489.78,275.88 493.00,276.20
             497.56,276.64 510.99,282.25 516.00,284.19
             516.00,284.19 553.00,299.00 553.00,299.00
             553.00,299.00 544.67,324.00 544.67,324.00
             544.67,324.00 539.00,338.00 539.00,338.00
             534.59,330.25 531.53,322.24 528.20,314.00
             526.02,308.61 524.16,303.19 518.98,299.89
             515.64,297.76 512.77,298.01 509.00,298.00
             509.00,298.00 323.00,298.00 323.00,298.00
             327.61,293.40 346.23,284.01 353.00,280.15
             353.00,280.15 392.00,258.00 392.00,258.00
             400.77,253.01 406.75,248.02 417.00,248.00
             417.00,248.00 426.00,248.00 426.00,248.00 Z
           M 546.00,277.00
           C 538.96,275.39 530.89,271.81 524.00,269.19
             520.32,267.79 517.27,267.37 515.00,264.00
             515.00,264.00 534.79,258.81 534.79,258.81
             534.79,258.81 539.30,264.00 539.30,264.00
             539.30,264.00 546.00,277.00 546.00,277.00 Z
           M 897.00,287.00
           C 897.00,287.00 905.00,341.00 905.00,341.00
             905.00,341.00 896.79,330.09 896.79,330.09
             891.10,323.92 884.21,319.15 877.00,315.00
             877.00,315.00 883.91,307.00 883.91,307.00
             883.91,307.00 897.00,287.00 897.00,287.00 Z
           M 1156.00,309.00
           C 1156.00,309.00 1089.00,309.00 1089.00,309.00
             1087.00,309.00 1083.20,308.76 1081.60,310.02
             1079.93,311.33 1079.79,314.95 1079.22,317.00
             1079.22,317.00 1073.92,339.00 1073.92,339.00
             1073.92,339.00 1068.32,368.00 1068.32,368.00
             1068.32,368.00 1063.66,387.00 1063.66,387.00
             1063.66,387.00 1057.34,420.00 1057.34,420.00
             1057.34,420.00 1052.13,441.00 1052.13,441.00
             1052.13,441.00 1047.12,466.00 1047.12,466.00
             1046.66,468.62 1045.25,474.15 1047.12,476.40
             1048.57,478.38 1052.71,478.00 1055.00,478.00
             1055.00,478.00 1111.00,478.00 1111.00,478.00
             1113.36,478.00 1117.53,478.25 1119.47,476.83
             1121.51,475.32 1122.54,469.50 1123.11,467.00
             1123.11,467.00 1129.34,440.00 1129.34,440.00
             1129.34,440.00 1135.45,408.00 1135.45,408.00
             1135.45,408.00 1140.55,387.00 1140.55,387.00
             1140.55,387.00 1146.67,355.00 1146.67,355.00
             1149.49,341.97 1155.72,321.96 1156.00,309.00 Z
           M 787.00,314.00
           C 784.55,318.21 781.87,318.72 778.00,321.44
             774.14,324.14 768.37,328.78 765.00,332.04
             752.56,344.08 743.50,359.52 738.35,376.00
             734.09,389.62 733.98,400.04 734.00,414.00
             734.02,425.94 738.24,435.59 738.02,439.00
             737.83,441.91 734.61,449.39 733.00,452.00
             729.81,442.37 727.20,425.35 725.84,415.00
             725.33,411.10 723.72,406.88 724.23,403.00
             724.81,398.53 730.73,389.20 732.62,384.00
             736.94,372.13 737.15,356.06 733.43,344.00
             730.96,336.01 725.45,328.04 719.00,322.81
             715.48,319.96 709.00,316.68 707.00,314.00
             707.00,314.00 787.00,314.00 787.00,314.00 Z
           M 326.00,316.00
           C 326.00,316.00 317.00,361.00 317.00,361.00
             311.94,355.93 310.15,348.50 307.55,342.00
             307.55,342.00 297.00,316.00 297.00,316.00
             297.00,316.00 326.00,316.00 326.00,316.00 Z
           M 832.05,353.66
           C 839.78,354.78 837.46,366.43 836.56,372.00
             836.56,372.00 825.49,418.00 825.49,418.00
             824.03,422.61 821.09,430.81 816.00,432.34
             809.98,434.17 809.90,425.71 810.04,422.00
             810.28,415.68 812.95,405.49 814.34,399.00
             814.34,399.00 821.79,369.00 821.79,369.00
             823.78,363.43 826.03,355.79 832.05,353.66 Z
           M 640.00,388.00
           C 640.00,388.00 642.80,373.00 642.80,373.00
             643.36,370.15 645.60,357.03 646.93,355.61
             649.98,352.36 656.48,355.64 658.12,359.06
             659.51,362.49 658.84,366.44 658.12,370.00
             656.22,382.15 653.23,387.87 640.00,388.00 Z
           M 465.00,380.00
           C 465.00,380.00 465.00,411.00 465.00,411.00
             465.00,411.00 451.00,411.00 451.00,411.00
             451.00,411.00 465.00,380.00 465.00,380.00 Z
           M 948.00,522.00
           C 948.00,522.00 951.00,529.00 951.00,529.00
             951.00,529.00 942.00,529.00 942.00,529.00
             942.00,529.00 935.00,565.00 935.00,565.00
             935.00,565.00 964.00,565.00 964.00,565.00
             964.00,565.00 965.00,555.00 965.00,555.00
             965.00,555.00 953.00,555.00 953.00,555.00
             953.00,555.00 953.00,552.00 953.00,552.00
             955.47,552.00 961.54,552.40 963.55,550.98
             965.73,549.21 966.72,543.11 963.55,541.60
             962.14,540.83 957.85,541.00 956.00,541.00
             956.00,541.00 969.00,540.00 969.00,540.00
             969.00,540.00 970.00,529.00 970.00,529.00
             963.40,528.97 960.87,529.42 960.00,522.00
             960.00,522.00 948.00,522.00 948.00,522.00 Z
           M 419.00,549.79
           C 419.00,549.79 405.41,549.79 405.41,549.79
             405.41,549.79 400.00,555.00 400.00,555.00
             400.26,549.37 400.99,544.21 405.00,540.00
             405.96,547.99 407.95,545.01 420.00,545.00
             419.97,542.17 420.12,538.83 418.71,536.29
             413.67,527.15 399.48,526.90 391.95,532.76
             385.33,537.90 384.90,544.30 385.00,552.00
             385.14,562.59 390.30,565.00 400.00,565.00
             403.89,565.00 407.51,564.95 410.98,562.91
             415.74,560.13 417.86,555.14 419.00,549.79 Z
           M 582.00,529.00
           C 582.00,529.00 565.00,564.00 565.00,564.00
             568.34,564.95 574.33,565.67 577.68,564.52
             581.65,563.14 580.20,561.06 587.00,560.00
             587.00,560.00 587.00,565.00 587.00,565.00
             587.00,565.00 601.96,565.00 601.96,565.00
             601.96,565.00 601.96,553.00 601.96,553.00
             601.96,553.00 601.00,543.00 601.00,543.00
             601.00,543.00 600.00,529.00 600.00,529.00
             600.00,529.00 582.00,529.00 582.00,529.00 Z
           M 755.00,565.00
           C 755.00,565.00 770.00,565.00 770.00,565.00
             770.60,561.85 770.97,557.08 774.23,555.60
             776.48,554.57 780.01,555.50 782.18,553.26
             783.83,551.56 784.55,546.39 785.00,544.00
             785.00,544.00 774.00,544.00 774.00,544.00
             777.10,538.51 782.35,540.00 788.00,540.00
             788.00,540.00 788.93,530.60 788.93,530.60
             788.93,530.60 783.00,529.00 783.00,529.00
             783.00,529.00 768.00,529.00 768.00,529.00
             768.00,529.00 761.93,530.60 761.93,530.60
             761.93,530.60 758.92,541.00 758.92,541.00
             758.92,541.00 755.00,565.00 755.00,565.00 Z
           M 587.00,549.00
           C 587.00,549.00 587.00,550.00 587.00,550.00
             587.00,550.00 586.00,549.00 586.00,549.00
             586.00,549.00 587.00,549.00 587.00,549.00 Z" />
</svg>
